<svg xmlns="http://www.w3.org/2000/svg" width="100%" height="100%" viewBox="0 145 150 150"><path d="m68.2 280.1c-1.1-0.5-4.5-2.2-6.1-3.2-5.8-3.5-9.5-7-15.3-14.6-2.9-3.9-6.5-8.3-8.1-10.1-5.2-5.9-10.7-10.3-16.7-13.5-0.9-0.5-1.9-1.1-2.1-1.3l-0.5-0.4-0.1-3.2c-0.2-5.6 0.4-9 2.6-14.2l0.8-2-0.1-1.6c0-0.9-0.2-2.2-0.3-2.8-0.3-1.6-2.1-7.2-3.4-11-1-2.8-1.8-4.9-5.9-15.1-3-7.5-4.5-12.8-4.5-16.1 0-0.8 0-0.9 0.3-0.8 0.1 0 0.5 0.2 0.9 0.2 7.3 1.8 10.8 3 19.2 6.6 8 3.5 17.5 8.4 24 12.4 1.3 0.8 2.4 1.4 2.4 1.4 0.1 0 0.4-0.1 0.7-0.3 1-0.6 4.6-1.7 6.3-2 1.7-0.3 3.9-0.5 7.7-0.7 2.1-0.1 5.9 0.1 8.3 0.6 3.4 0.6 8.5 2.2 12.8 3.9l1.9 0.8 3.1-2c9.7-6.4 19.5-11.3 31.8-16.1 5-1.9 12.8-4.3 14-4.3 0.4 0 0.3 0.1-0.1 0.8-0.2 0.3-0.7 1.4-1.1 2.4-0.4 1-1.9 4.2-3.3 7.1-1.4 2.9-3.9 8.1-5.5 11.6-3.3 7.2-5.2 11.1-6.8 13.8-0.6 1-1.2 2.1-1.4 2.4-0.1 0.3-0.6 0.9-1 1.5-0.4 0.6-0.7 1.1-0.7 1.2 0 0.1-1.5 2.1-3.1 4.1l-1.4 1.7 0.5 1.5c0.7 2.4 1 4.7 1.2 9.3 0.1 2.1 0.1 3.1-0.1 4-0.1 0.7-0.3 2.1-0.4 3.1-0.1 1.1-0.3 2.1-0.4 2.3-0.2 0.4-1.2 1.1-4.3 2.9-3.5 2.1-8.6 6.4-10.1 8.6-0.3 0.4-1.6 2-2.9 3.5-2.4 2.9-5 6-5.9 7.3-2 2.8-6.1 7.6-8 9.6-2.3 2.4-7.4 6.1-11.2 8.3-2.2 1.3-5.6 2.8-6.2 2.8-0.3 0-0.9-0.2-1.4-0.4zm2.6-1.1c0.3-0.1 1.3-0.6 2.2-1.2 0.9-0.5 1.9-1 2.2-1.2 0.3-0.1 1-0.6 1.5-0.9 0.5-0.4 1.7-1.2 2.5-1.8 0.8-0.6 1.9-1.4 2.4-1.8l0.9-0.7 0-3.6c0-4.2 0.2-5 1.5-9.1 1.2-3.7 3.7-8.4 5.6-10.7 2.3-2.8 4.9-5.3 6.9-6.8 1.3-0.9 4.2-2.4 6.1-3 3.3-1.1 6-1.4 11-1.4 2.1 0 3.7 0 3.8-0.1 0.1-0.1 0.3-0.9 0.4-1.7 0.3-2 0.4-8.7 0.1-11.4-0.2-2-0.8-5.1-1.2-6.3-0.7-2.3-2.5-5.8-3.5-7.1-0.2-0.3-0.4-0.7-0.4-0.8 0-0.2 0.5-0.3 0.7 0 0.2 0.4 0.3 0.1 0.2-0.4-0.1-0.3-0.2-1.4-0.2-2.4 0-1.7 0.2-2.6 0.9-4.9 0.1-0.3-0.2-0.2-1.6 0.5-2 1-3.2 1.4-4.5 1.5l-1 0.1 1 0.9c1.2 1 2.8 2.6 2.6 2.6-0.1 0-0.6-0.4-1.1-0.9-1.4-1.2-3-2.4-6.3-4.5l-2.9-1.9 0.8-1.2c4.4-6.4 17.1-15.6 27.7-20.2 5.5-2.4 6.8-2.7 2.6-0.7-1.5 0.7-3.4 1.7-4.2 2.2-0.8 0.5-2.3 1.4-3.5 2-9.6 5.5-18.1 12.1-21.5 16.6-0.5 0.7-0.9 1.3-0.9 1.4 0 0.1 0.2 0.2 0.5 0.3 0.3 0.1 1.4 0.8 2.5 1.5 2 1.3 2 1.3 2.8 1.2 0.5 0 1.6-0.4 2.6-0.8 2.1-0.9 5.6-2.1 5.7-2 0 0-0.1 0.2-0.3 0.4-0.4 0.4-1.2 2.7-1.4 4.3-0.1 0.7-0.1 1.9-0.1 3 0.1 1.6 0.1 1.9 0.5 2.2 0.5 0.5 2.1 3.9 2.4 4.8 0.1 0.4 0.2 0.7 0.3 0.7 0 0 0.5-0.5 1-1.2 3.7-4.7 7-10.6 12-21.6 4.1-9 6.1-12.8 8.5-16.7 1.7-2.7 2.6-4.4 2.3-4.4-0.1 0-0.2 0.1-0.4 0.2-0.1 0.1-0.5 0.2-0.9 0.2-1.9 0-12.7 3.9-20.7 7.4-3.6 1.6-10.5 5-13.2 6.5-3.3 1.8-9.8 5.7-13.7 8.2-1.9 1.3-3.6 2.2-3.9 2.2-0.5 0-0.1-0.3 1.4-1.4 0.9-0.6 1.6-1.1 1.5-1.2 0-0.1-0.8-0.4-1.7-0.8-0.9-0.3-1.7-0.7-1.9-0.8-0.3-0.3-2.7-1.2-4.5-1.9-1.7-0.6-5.1-1.3-7.2-1.6-3.2-0.4-9-0.1-13.3 0.5-1.2 0.2-5.1 1.3-5.8 1.7-0.1 0.1-0.5 0.2-0.8 0.2-0.7 0.1-1 0-5.4-2.5-14.7-8.3-28.2-14.3-39-17.5l-2.2-0.6 0 0.4c0 0.6 0.4 3 0.8 4.7 0.8 3.3 1.9 6.3 5 13.9 5.4 13.2 8 21.2 8 25.2l0 1.2 0.3-0.4c0.2-0.2 0.3-0.5 0.4-0.7 0.2-0.6 1.9-3.3 3.3-5l1.4-1.8-0.1-1.1c0-0.7-0.2-1.5-0.6-2.5-0.3-0.9-0.6-1.7-0.6-2.1 0-0.6 0-0.7 0.4-0.7 0.2 0 0.8 0.1 1.3 0.2 0.5 0.1 1.5 0.3 2.3 0.3l1.3 0.1-0.1-1.8c0-1-0.1-2.1-0.2-2.5-0.1-0.9 0.1-1 0.9-0.5 0.8 0.5 3.4 4 3.4 4.6 0 0.1 0.4-0.5 0.8-1.3 1.1-2.1 2.3-3.9 3.3-5 0.5-0.5 0.8-1 0.8-1.1-0.1-0.2-3.9-3-5.7-4.2-6-4-15.8-9.3-21.1-11.3-1.1-0.4-1.3-0.5-1.3-0.9 0-0.6 1.1-0.6 2.5 0 4.3 1.7 12.7 6.1 18 9.5 4.5 2.8 9.2 6.5 9.2 7.2 0 0.3-0.2 0.6-0.4 0.6-0.7 0-3.5 3.7-4.8 6.3-0.3 0.7-0.7 1.3-0.7 1.3-0.1 0 0 0.4 0.2 0.9 0.2 0.4 0.3 0.9 0.2 0.9-0.1 0-0.1 0-0.2 0-0.1-0.3-2.5-4.1-3.3-5.2-0.6-0.8-0.8-1.1-0.8-0.9 0 0.2 0 1-0.1 1.8 0 1.3 0 1.5 0.2 1.4 0.4-0.2-0.2 0.6-0.7 0.9-0.6 0.3-2.3 0.4-3.5 0-0.4-0.1-0.8-0.2-0.8-0.1 0 0 0.2 0.6 0.4 1.2 0.4 0.9 0.5 1.4 0.5 2.3 0 0.6 0.1 1.3 0.2 1.6 0.2 0.4 0.1 0.5-1.2 2.2-5.6 7.3-8.5 15.6-8.1 23.1 0.1 1.1 0.2 2.2 0.2 2.3 0.1 0.2 0.8 0.2 3.8 0.2 5.1 0 7.9 0.3 11.2 1.4 1.9 0.6 4.8 2.1 6.1 3 1.9 1.4 4.5 4 6.9 6.8 1.9 2.2 4.4 7 5.5 10.5 1.3 4 1.5 5.1 1.6 8.8l0.1 3.3 0.5 0.5c1.7 1.7 7.3 5.7 10.7 7.6 2.2 1.2 2.7 1.3 3.9 0.9zm-2.4-3.5c-3.6-1.2-8.3-4.1-10.9-6.8-1.7-1.7-1.6-2.4 0.8-3.1 4.1-1.3 9.4-2 13.5-1.7 5.8 0.4 9.8 1.9 9.8 3.8 0 0.7-0.6 1.7-1.7 2.5-2.3 1.9-8.9 5.7-9.9 5.7-0.3 0-1-0.2-1.7-0.4zm26.5-46.4c-3.5-0.9-8.2-1.4-14.9-1.6l-4.2-0.1-0.4-0.4c-0.6-0.6-0.6-1.3 0-2l0.4-0.5 2.2-0.1c4.4-0.2 10.6 0.2 14.4 0.9 1.7 0.3 4.8 1.1 5.6 1.4 1.1 0.4 1.3 1.6 0.6 2.4-0.4 0.4-0.6 0.4-1.3 0.4-0.4 0-1.6-0.2-2.5-0.5zm-55.8-0.3c-0.8-0.8-0.5-2 0.6-2.4 0.8-0.3 3.9-1.1 5.6-1.4 3.8-0.7 10.1-1.1 14.4-0.9l2.2 0.1 0.4 0.5c0.6 0.7 0.6 1.4 0 2l-0.4 0.4-4.2 0.1c-6.8 0.2-11.3 0.6-15 1.6-2.3 0.6-3 0.6-3.6 0zm73.6-19.9c0-0.1 0.1-0.1 0.1-0.1 0.1 0 0.1 0.1 0.1 0.1 0 0.1-0.1 0.1-0.1 0.1-0.1 0-0.1-0.1-0.1-0.1zm-27.4 60.2c0.2-0.1 0.8-0.7 1.4-1.4 0.5-0.7 1.5-1.8 2.1-2.5 1.3-1.3 2.1-2.4 4.7-5.8 3.1-4 6.5-8.3 9-11 2.5-2.8 3.5-3.7 5.4-5.2 0.6-0.5 1.6-1.3 2.3-1.8 1.2-1 5.6-3.9 5.8-3.9 0.1 0 0.1-0.1 0.1-0.2 0-0.2-6.3 0-8.3 0.2-4.2 0.7-7.3 1.8-10.9 4.1-1.1 0.7-2 1.4-3.3 2.7-4 4-6 6.9-7.9 11.4-0.8 1.9-2 5.5-2.3 7.1-0.4 1.8-0.6 5.4-0.4 6.2 0.1 0.4 0.2 0.8 0.1 0.9 0 0.1 0 0.4 0 0.6 0 0.3 0.1 0.3 0.9-0.5 0.5-0.5 1.1-0.9 1.3-1zm-30.1-3c-0.1-3.1-0.3-4.1-1.3-7.3-1.5-4.7-3.4-8.4-6-11.5-2.5-2.9-4.7-5.1-6.5-6.2-3.7-2.3-6.7-3.4-10.9-4.1-1.7-0.3-7.4-0.5-8-0.3-0.4 0.1-0.3 0.2 1.4 1.1 4.2 2.3 8.5 5.5 12.1 9 3.8 3.7 6.4 6.7 11.2 13 3.4 4.5 4.7 6 7.2 8.8 0.4 0.5 0.5 0.5 0.7 0.4 0.2-0.1 0.2-0.6 0.1-3z" class="fox"/></svg>