<?xml version="1.0" encoding="UTF-8" standalone="no"?>
<!-- Created with Inkscape (http://www.inkscape.org/) -->

<svg
   xmlns:dc="http://purl.org/dc/elements/1.1/"
   xmlns:cc="http://creativecommons.org/ns#"
   xmlns:rdf="http://www.w3.org/1999/02/22-rdf-syntax-ns#"
   xmlns:svg="http://www.w3.org/2000/svg"
   xmlns="http://www.w3.org/2000/svg"
   xmlns:sodipodi="http://sodipodi.sourceforge.net/DTD/sodipodi-0.dtd"
   xmlns:inkscape="http://www.inkscape.org/namespaces/inkscape"
   width="550"
   height="550"
   viewBox="0 0 145.52084 145.52084"
   version="1.1"
   id="svg4652"
   inkscape:version="0.92.1 r15371"
   sodipodi:docname="frm-icon.svg">
  <defs
     id="defs4646" />
  <sodipodi:namedview
     id="base"
     pagecolor="#ffffff"
     bordercolor="#666666"
     borderopacity="1.0"
     inkscape:pageopacity="0.0"
     inkscape:pageshadow="2"
     inkscape:zoom="0.98994949"
     inkscape:cx="374.82454"
     inkscape:cy="372.94635"
     inkscape:document-units="mm"
     inkscape:current-layer="layer1"
     showgrid="false"
     inkscape:window-width="1920"
     inkscape:window-height="1017"
     inkscape:window-x="-8"
     inkscape:window-y="-8"
     inkscape:window-maximized="1"
     units="px" />
  <metadata
     id="metadata4649">
    <rdf:RDF>
      <cc:Work
         rdf:about="">
        <dc:format>image/svg+xml</dc:format>
        <dc:type
           rdf:resource="http://purl.org/dc/dcmitype/StillImage" />
        <dc:title></dc:title>
        <cc:license
           rdf:resource="http://creativecommons.org/licenses/by-nc/4.0/" />
      </cc:Work>
      <cc:License
         rdf:about="http://creativecommons.org/licenses/by-nc/4.0/">
        <cc:permits
           rdf:resource="http://creativecommons.org/ns#Reproduction" />
        <cc:permits
           rdf:resource="http://creativecommons.org/ns#Distribution" />
        <cc:requires
           rdf:resource="http://creativecommons.org/ns#Notice" />
        <cc:requires
           rdf:resource="http://creativecommons.org/ns#Attribution" />
        <cc:prohibits
           rdf:resource="http://creativecommons.org/ns#CommercialUse" />
        <cc:permits
           rdf:resource="http://creativecommons.org/ns#DerivativeWorks" />
      </cc:License>
    </rdf:RDF>
  </metadata>
  <g
     inkscape:label="Layer 1"
     inkscape:groupmode="layer"
     id="layer1"
     transform="translate(0,-151.47915)">
    <path
       style="display:inline;fill:#020202;fill-opacity:1;stroke:#ffffff;stroke-width:0.152;stroke-miterlimit:4;stroke-dasharray:none;stroke-opacity:1"
       d="m 68.160087,280.10256 c -1.139835,-0.47533 -4.473972,-2.23779 -6.139747,-3.2444 -5.823987,-3.51975 -9.504278,-7.0403 -15.250659,-14.58891 -2.94336,-3.86655 -6.476361,-8.26324 -8.114812,-10.09861 -5.245178,-5.87621 -10.745808,-10.30798 -16.721612,-13.47252 -0.915101,-0.48342 -1.871107,-1.07031 -2.125266,-1.30313 l -0.462401,-0.42198 -0.113175,-3.24845 c -0.18593,-5.56918 0.449467,-9.04075 2.603349,-14.22433 l 0.840729,-2.02534 -0.09701,-1.61517 c -0.0485,-0.88762 -0.206949,-2.16197 -0.336291,-2.82938 -0.31204,-1.60547 -2.061241,-7.22445 -3.412066,-10.96246 -1.025043,-2.8381 -1.831335,-4.88188 -5.935547,-15.05519 -3.0262998,-7.50124 -4.5054978,-12.79476 -4.5088928,-16.13504 -8.09e-4,-0.78576 0.03234,-0.8763 0.265153,-0.78576 0.14551,0.0485 0.53839,0.16815 0.873064,0.24899 7.2672928,1.7534 10.8209898,2.98103 19.2418598,6.64806 8.017481,3.49113 17.532106,8.40163 24.023503,12.39816 1.267561,0.7793 2.360831,1.41793 2.429545,1.41793 0.06467,0 0.375094,-0.12935 0.680667,-0.29749 1.033126,-0.55456 4.588439,-1.66093 6.342652,-1.97539 1.663512,-0.29749 3.901791,-0.50121 7.736967,-0.70654 2.06658,-0.11317 5.93296,0.14551 8.26793,0.56911 3.40786,0.60468 8.49055,2.15793 12.787,3.90697 l 1.86367,0.75989 3.06655,-2.01808 c 9.723033,-6.39924 19.512353,-11.34871 31.814803,-16.08605 5.03241,-1.93756 12.75952,-4.32927 13.98812,-4.32927 0.36054,0 0.3476,0.0647 -0.14552,0.81163 -0.23281,0.34599 -0.72755,1.44864 -1.09618,2.44927 -0.36862,1.00079 -1.85736,4.20962 -3.30681,7.13002 -1.44864,2.9204 -3.93445,8.14279 -5.52229,11.60546 -3.28515,7.16495 -5.21058,11.07563 -6.7973,13.80719 -0.60468,1.04121 -1.21259,2.10279 -1.35163,2.35711 -0.12934,0.25384 -0.57234,0.94744 -0.96522,1.53757 -0.39288,0.59174 -0.71462,1.11881 -0.71462,1.17702 0,0.14551 -1.48098,2.14192 -3.06413,4.13509 l -1.35002,1.69827 0.45432,1.48745 c 0.72755,2.37667 1.02989,4.69353 1.21744,9.30056 0.0808,2.11411 0.0647,3.10455 -0.097,4.01561 -0.11318,0.66612 -0.30719,2.07919 -0.43168,3.14272 -0.12935,1.06384 -0.30073,2.09891 -0.39288,2.30117 -0.16815,0.37024 -1.21583,1.08001 -4.30599,2.92153 -3.51797,2.09568 -8.59241,6.39487 -10.12593,8.57883 -0.27162,0.38641 -1.55535,1.95566 -2.85493,3.48708 -2.420003,2.85331 -4.962883,5.9805 -5.906443,7.26358 -2.03505,2.76761 -6.13295,7.64432 -8.03979,9.56798 -2.34855,2.36907 -7.37158,6.07992 -11.2268,8.29411 -2.20304,1.26433 -5.5978,2.76745 -6.23595,2.75937 -0.28294,-0.003 -0.89085,-0.16491 -1.35001,-0.35569 z m 2.55064,-1.07031 c 0.33953,-0.12934 1.34678,-0.63701 2.23828,-1.15277 0.89247,-0.51575 1.86917,-1.03798 2.17134,-1.16409 0.30234,-0.12934 0.99271,-0.55132 1.53595,-0.9442 0.54324,-0.39288 1.66885,-1.18672 2.50311,-1.76116 0.83426,-0.57396 1.91993,-1.36942 2.41208,-1.76456 l 0.8957,-0.71947 0.0323,-3.60899 c 0.0323,-4.18894 0.16491,-4.97971 1.53433,-9.14649 1.22229,-3.7165 3.67463,-8.41569 5.59732,-10.7222 2.31362,-2.77554 4.92214,-5.34639 6.85291,-6.7538 1.27079,-0.92642 4.243573,-2.37829 6.117913,-2.98766 3.28273,-1.06708 5.98987,-1.40499 10.97152,-1.36942 2.05073,0.0141 3.67446,-0.0323 3.75401,-0.11317 0.0808,-0.0647 0.25384,-0.85367 0.3945,-1.72609 0.31365,-1.95938 0.35407,-8.73065 0.0647,-11.37102 -0.2118,-1.95324 -0.8084,-5.14283 -1.17702,-6.29593 -0.72756,-2.27336 -2.47546,-5.78761 -3.54966,-7.13924 -0.24575,-0.31042 -0.44784,-0.6548 -0.44784,-0.76959 0,-0.23767 0.54324,-0.28294 0.68228,-0.0485 0.22312,0.36216 0.34114,0.11318 0.18916,-0.41551 -0.097,-0.31366 -0.16168,-1.38882 -0.16168,-2.38945 0.009,-1.74209 0.17138,-2.64377 0.87307,-4.86329 0.0808,-0.26516 -0.16168,-0.18432 -1.62552,0.53839 -2.03877,1.00725 -3.18329,1.39043 -4.4882,1.50684 l -0.95875,0.0808 1.03474,0.86336 c 1.19966,1.00241 2.75404,2.55 2.55938,2.55 -0.0808,0 -0.58366,-0.39773 -1.13176,-0.88115 -1.39043,-1.22714 -2.96405,-2.36407 -6.27798,-4.5367 l -2.85152,-1.86933 0.79546,-1.15115 c 4.42417,-6.39973 17.11222,-15.63772 27.7392,-20.19657 5.49109,-2.35566 6.78419,-2.6787 2.63762,-0.65965 -1.51169,0.73563 -3.38878,1.71524 -4.17195,2.17554 -0.78253,0.46079 -2.34564,1.36781 -3.47205,2.01226 -9.6118,5.51566 -18.09701,12.06333 -21.5191,16.60504 -0.51414,0.68228 -0.93289,1.29505 -0.93289,1.36295 0,0.0647 0.21503,0.21342 0.47857,0.32174 0.26354,0.11318 1.3775,0.79223 2.47514,1.51978 1.99285,1.32091 1.99722,1.32253 2.80674,1.24654 0.48019,-0.0485 1.55858,-0.38479 2.6449,-0.83426 2.11023,-0.87145 5.59602,-2.0994 5.69173,-2.00433 0.0323,0.0323 -0.0808,0.20048 -0.25868,0.36539 -0.41067,0.38157 -1.17056,2.74321 -1.39206,4.32313 -0.097,0.7324 -0.12934,1.93481 -0.0647,3.03422 0.0808,1.61792 0.14551,1.8627 0.45109,2.19964 0.45593,0.4915 2.13626,3.89807 2.35856,4.78067 0.097,0.37348 0.21504,0.67744 0.26677,0.6742 0.0485,-0.005 0.51414,-0.53515 1.02343,-1.1754 3.733,-4.69353 7.0403,-10.62164 12.03439,-21.57116 4.08222,-8.95037 6.06246,-12.83632 8.49556,-16.67085 1.6897,-2.66317 2.59931,-4.41641 2.29115,-4.41641 -0.0808,0 -0.24414,0.11317 -0.3751,0.23605 -0.12934,0.12934 -0.50928,0.2409 -0.88276,0.24413 -1.85882,0.0323 -12.68611,3.91909 -20.65719,7.43528 -3.64052,1.60709 -10.45592,4.9527 -13.24682,6.50514 -3.32459,1.84928 -9.774603,5.74558 -13.655373,8.24901 -1.94144,1.25301 -3.64278,2.20853 -3.92912,2.20853 -0.46886,0 -0.12934,-0.34599 1.38074,-1.38397 0.87306,-0.60145 1.55373,-1.1463 1.51493,-1.20936 -0.0323,-0.0647 -0.80516,-0.40096 -1.70054,-0.75019 -0.8957,-0.34761 -1.73578,-0.72755 -1.86723,-0.84558 -0.30395,-0.26838 -2.68354,-1.23845 -4.54656,-1.85397 -1.6994,-0.56102 -5.07639,-1.29019 -7.19939,-1.55211 -3.18959,-0.39611 -9.027808,-0.14551 -13.273812,0.54971 -1.238458,0.20533 -5.066199,1.3484 -5.771118,1.7243 -0.129343,0.0647 -0.504437,0.16976 -0.834262,0.22635 -0.675817,0.11318 -1.029893,-0.0485 -5.379694,-2.49147 -14.71854,-8.2619 -28.176992,-14.31531 -38.95061,-17.51946 l -2.1618048,-0.64186 6.47e-4,0.39611 c 9.7e-4,0.63701 0.418748,3.00302 0.8245608,4.6641 0.805159,3.30067 1.897784,6.33409 5.016564,13.93201 5.436283,13.24472 7.955075,21.22647 7.966877,25.2458 l 0.0034,1.156 0.297489,-0.37994 c 0.16329,-0.21019 0.341137,-0.51737 0.396108,-0.68229 0.197248,-0.61276 1.945964,-3.30956 3.26995,-5.04308 l 1.362951,-1.78364 -0.06467,-1.06222 c -0.0485,-0.74049 -0.232818,-1.48906 -0.617613,-2.48048 -0.336291,-0.86498 -0.552941,-1.67903 -0.552941,-2.08597 0,-0.61277 0.03234,-0.66774 0.386412,-0.66774 0.211799,0 0.81001,0.097 1.327382,0.22797 0.517371,0.12934 1.540797,0.28294 2.273201,0.34761 l 1.332232,0.12934 -0.08084,-1.75227 c -0.0485,-0.96361 -0.113175,-2.11088 -0.161679,-2.54887 -0.08084,-0.91995 0.09701,-1.01695 0.94582,-0.5012 0.821328,0.5012 3.376011,3.95418 3.385712,4.57696 0.0018,0.11318 0.365394,-0.48018 0.808393,-1.32253 1.107499,-2.10376 2.306508,-3.90648 3.344646,-5.02691 0.480186,-0.51899 0.831028,-1.01373 0.777674,-1.0978 -0.145511,-0.23928 -3.913754,-3.02307 -5.721321,-4.22871 -6.035302,-4.02515 -15.802308,-9.26434 -21.058643,-11.29616 -1.133367,-0.43976 -1.290195,-0.54486 -1.290195,-0.87145 0,-0.58689 1.071929,-0.59336 2.52542,-0.0139 4.336384,1.72269 12.689672,6.12714 17.954736,9.46693 4.463624,2.83181 9.178334,6.54556 9.178334,7.23011 0,0.31851 -0.198865,0.61923 -0.410664,0.61923 -0.669349,0 -3.478354,3.69387 -4.775501,6.28041 -0.339525,0.67743 -0.6742,1.26594 -0.745339,1.31283 -0.06467,0.0485 0.0084,0.44785 0.177847,0.89085 0.168146,0.44461 0.260302,0.85204 0.203715,0.90378 -0.06467,0.0485 -0.129343,0.0323 -0.161679,-0.0485 -0.113175,-0.2894 -2.468347,-4.0549 -3.269627,-5.21026 -0.582043,-0.83749 -0.81486,-1.07677 -0.835878,-0.85851 -0.01617,0.16653 -0.0485,0.96037 -0.08084,1.76569 -0.0485,1.26756 -0.01617,1.45188 0.182696,1.37427 0.415515,-0.16491 -0.195631,0.61923 -0.737254,0.93612 -0.593361,0.34761 -2.286459,0.37025 -3.466875,0.0485 -0.438149,-0.12934 -0.795459,-0.17461 -0.795459,-0.12934 3.24e-4,0.0485 0.202099,0.61276 0.449467,1.23846 0.35731,0.9054 0.451083,1.37588 0.454317,2.30634 0.0029,0.64187 0.08084,1.34194 0.179463,1.55212 0.161679,0.35569 0.08084,0.51737 -1.22229,2.20837 -5.604267,7.31741 -8.510117,15.56835 -8.127262,23.07784 0.06467,1.1366 0.163296,2.15728 0.232818,2.26997 0.09701,0.16653 0.842345,0.19725 3.814645,0.16491 5.073314,-0.0485 7.862917,0.27971 11.197215,1.36134 1.87434,0.60952 4.847287,2.06124 6.118081,2.98765 1.930604,1.40661 4.539289,3.97827 6.85291,6.75381 1.859628,2.23084 4.358856,6.98047 5.540888,10.53061 1.320915,3.96468 1.523013,5.08463 1.603852,8.83574 l 0.06467,3.25879 0.488269,0.50929 c 1.66626,1.7437 7.340695,5.74444 10.729155,7.56478 2.220984,1.19319 2.730104,1.30798 3.915854,0.88923 z m -2.39883,-3.51247 c -3.633075,-1.23037 -8.268078,-4.1144 -10.91023,-6.79293 -1.725919,-1.74952 -1.568283,-2.35986 0.808393,-3.11506 4.083194,-1.29828 9.354397,-1.95372 13.477857,-1.67693 5.81735,0.39126 9.81971,1.94273 9.8223,3.80899 9.7e-4,0.69845 -0.64187,1.65785 -1.6682,2.48694 -2.32591,1.87935 -8.94051,5.68462 -9.86951,5.67767 -0.28779,-0.002 -1.03475,-0.17623 -1.66012,-0.38965 z m 26.47262,-46.35294 c -3.53996,-0.94582 -8.17884,-1.44541 -14.94121,-1.60224 l -4.17018,-0.097 -0.41875,-0.41713 c -0.58042,-0.57881 -0.57072,-1.329 0.0162,-1.99495 l 0.44139,-0.49474 2.17474,-0.0808 c 4.35756,-0.16491 10.59932,0.24252 14.43499,0.92481 1.71557,0.30557 4.83176,1.07192 5.60831,1.37911 1.05576,0.41713 1.3484,1.6412 0.57557,2.41322 -0.38479,0.38479 -0.55132,0.44138 -1.25139,0.43006 -0.44462,-0.008 -1.55858,-0.21503 -2.47692,-0.46078 z m -55.763608,-0.27001 c -0.772824,-0.77282 -0.480185,-1.99511 0.575576,-2.41337 0.776057,-0.30719 3.892736,-1.07516 5.608308,-1.37912 3.835664,-0.68228 10.077267,-1.08325 14.434991,-0.9248 l 2.174739,0.0808 0.443,0.49473 c 0.594977,0.66612 0.603061,1.41469 0.01617,1.99479 l -0.418748,0.41714 -4.170177,0.097 c -6.774658,0.16491 -11.314593,0.64348 -15.046944,1.61516 -2.317825,0.60307 -3.034546,0.6063 -3.622733,0.0141 z m 73.589161,-19.88501 c 0,-0.0808 0.0647,-0.14551 0.14551,-0.14551 0.0808,0 0.14551,0.0647 0.14551,0.14551 0,0.0808 -0.0647,0.14551 -0.14551,0.14551 -0.0808,0 -0.14551,-0.0647 -0.14551,-0.14551 z m -27.434603,60.24453 c 0.22797,-0.0808 0.81648,-0.69845 1.35487,-1.41145 0.52384,-0.6936 1.47289,-1.8066 2.11087,-2.47401 1.28373,-1.34355 2.14402,-2.39883 4.70388,-5.76481 3.07869,-4.04827 6.52519,-8.28151 8.976723,-11.02568 2.46495,-2.75904 3.46461,-3.72119 5.43273,-5.22804 0.62569,-0.47857 1.64783,-1.27564 2.2711,-1.77119 1.22714,-0.9733 5.56659,-3.89661 5.78648,-3.89661 0.0808,0 0.12934,-0.0647 0.12934,-0.17462 0,-0.24898 -6.32422,-0.0485 -8.26809,0.24576 -4.22999,0.66935 -7.25015,1.79334 -10.922363,4.06945 -1.12205,0.69522 -1.97134,1.39528 -3.2617,2.68936 -4.01852,4.02935 -6.03724,6.9268 -7.94133,11.39705 -0.79223,1.86173 -1.95971,5.45827 -2.29632,7.07829 -0.36863,1.77604 -0.59013,5.38034 -0.38318,6.24322 0.097,0.39935 0.16168,0.81971 0.14551,0.9345 -0.0155,0.11318 -0.0162,0.37671 -0.0108,0.58204 0.0162,0.34761 0.0808,0.31204 0.89085,-0.48341 0.48018,-0.47372 1.05414,-0.92804 1.27564,-1.0105 z m -30.107954,-3.04813 c -0.09701,-3.11894 -0.26192,-4.05376 -1.322531,-7.34829 -1.514929,-4.70355 -3.44618,-8.36509 -6.045811,-11.46156 -2.456222,-2.92525 -4.743166,-5.1105 -6.467145,-6.17871 -3.674793,-2.2774 -6.708369,-3.40705 -10.922523,-4.06735 -1.668038,-0.2603 -7.36624,-0.48503 -8.041087,-0.31527 -0.392879,0.097 -0.287788,0.18108 1.380736,1.09456 4.201058,2.30004 8.456762,5.4662 12.106172,9.00647 3.811574,3.69792 6.422522,6.7268 11.246042,13.04682 3.441976,4.50986 4.655213,5.99844 7.199873,8.83412 0.415514,0.4624 0.54809,0.53354 0.72917,0.38318 0.184314,-0.14551 0.206949,-0.64348 0.129343,-2.9938 z"
       id="path4579"
       inkscape:connector-curvature="0" />
  </g>
</svg>
